<svg width="520" height="520" viewBox="0 0 520 520" fill="none" xmlns="http://www.w3.org/2000/svg">
<rect width="520" height="520" rx="15" fill="white"/>
<path d="M158.154 327.38L174.804 376.43C175.104 377.33 175.494 378.71 175.974 380.57C176.514 382.37 176.814 383.96 176.874 385.34L182.004 385.07L181.734 392H157.614L157.974 386.06C160.494 386.06 161.934 385.31 162.294 383.81C162.654 382.25 162.474 380.36 161.754 378.14L160.224 373.19L140.514 373.55L138.804 377.78C138.504 378.56 138.024 379.73 137.364 381.29C136.764 382.79 136.164 384.05 135.564 385.07L142.224 384.8L141.774 392H122.514L122.874 385.79C124.554 385.79 125.904 385.31 126.924 384.35C128.004 383.39 128.934 382.13 129.714 380.57C130.494 379.01 131.274 377.33 132.054 375.53L152.124 327.38H158.154ZM151.944 343.22C151.704 344.24 151.224 345.77 150.504 347.81C149.784 349.85 148.854 352.28 147.714 355.1L143.124 366.8H158.244L154.734 355.55C154.134 353.39 153.564 351.23 153.024 349.07C152.484 346.85 152.124 344.9 151.944 343.22ZM189.113 392.99L185.243 389.39C186.623 387.41 188.303 385.1 190.283 382.46C192.323 379.82 194.453 377.15 196.673 374.45C198.893 371.75 200.933 369.32 202.793 367.16C204.773 364.82 206.483 362.96 207.923 361.58C209.363 360.2 210.713 358.94 211.973 357.8C213.293 356.66 214.733 355.37 216.293 353.93H216.203C213.803 355.91 211.763 357.23 210.083 357.89C208.403 358.49 206.873 358.79 205.493 358.79C204.233 358.79 203.063 358.61 201.983 358.25C200.963 357.83 199.943 357.44 198.923 357.08C197.903 356.72 196.823 356.54 195.683 356.54C194.483 356.54 193.553 356.99 192.893 357.89C192.293 358.79 191.993 359.87 191.993 361.13C191.993 362.15 192.173 363.17 192.533 364.19L188.033 365.72C187.313 363.8 186.953 361.46 186.953 358.7C186.953 356.54 187.343 354.5 188.123 352.58C188.963 350.66 190.193 349.1 191.813 347.9C193.493 346.64 195.563 346.01 198.023 346.01C199.703 346.01 201.473 346.25 203.333 346.73C205.193 347.15 207.053 347.6 208.913 348.08C210.833 348.5 212.633 348.71 214.313 348.71C214.973 348.71 215.963 348.59 217.283 348.35C218.663 348.05 220.073 347.27 221.513 346.01L225.383 349.61C223.163 352.49 220.943 355.37 218.723 358.25C216.503 361.07 214.253 363.92 211.973 366.8C208.133 371.66 204.713 375.44 201.713 378.14C198.713 380.78 196.073 383.06 193.793 384.98H193.883C196.343 383 198.473 381.74 200.273 381.2C202.133 380.66 203.753 380.39 205.133 380.39C206.633 380.39 207.923 380.6 209.003 381.02C210.143 381.38 211.193 381.74 212.153 382.1C213.173 382.46 214.253 382.64 215.393 382.64C216.533 382.64 217.403 382.28 218.003 381.56C218.603 380.78 218.933 379.85 218.993 378.77C219.113 377.57 218.873 376.31 218.273 374.99L222.863 373.46C223.163 374.42 223.433 375.47 223.673 376.61C223.973 377.69 224.123 378.92 224.123 380.3C224.123 382.4 223.703 384.44 222.863 386.42C222.083 388.34 220.853 389.93 219.173 391.19C217.553 392.39 215.513 392.99 213.053 392.99C211.373 392.99 209.513 392.75 207.473 392.27C205.493 391.85 203.483 391.43 201.443 391.01C199.463 390.53 197.603 390.29 195.863 390.29C195.203 390.29 194.273 390.44 193.073 390.74C191.873 390.98 190.553 391.73 189.113 392.99ZM292.722 392.99C289.422 392.99 287.172 392.09 285.972 390.29C284.832 388.49 284.262 386 284.262 382.82C284.262 381.02 284.382 379.01 284.622 376.79C284.862 374.51 285.102 372.2 285.342 369.86C285.642 367.52 285.912 365.33 286.152 363.29C286.392 361.19 286.512 359.45 286.512 358.07C286.512 356.69 286.332 355.73 285.972 355.19C285.612 354.59 284.952 354.29 283.992 354.29C282.912 354.29 281.802 354.95 280.662 356.27C279.522 357.53 278.412 359.27 277.332 361.49C276.312 363.65 275.382 366.08 274.542 368.78C273.762 371.48 273.132 374.24 272.652 377.06C272.172 379.88 271.932 382.55 271.932 385.07C271.932 385.85 271.962 386.93 272.022 388.31C272.082 389.63 272.142 390.86 272.202 392H260.592C260.472 390.74 260.382 389.57 260.322 388.49C260.322 387.35 260.322 386.51 260.322 385.97C260.322 382.55 260.502 379.04 260.862 375.44C261.222 371.84 261.552 368.51 261.852 365.45C262.212 362.39 262.392 359.93 262.392 358.07C262.392 355.55 261.552 354.29 259.872 354.29C258.792 354.29 257.652 354.95 256.452 356.27C255.312 357.59 254.202 359.39 253.122 361.67C252.042 363.89 251.052 366.38 250.152 369.14C249.312 371.84 248.622 374.63 248.082 377.51C247.602 380.33 247.362 383 247.362 385.52C247.362 386.3 247.392 387.41 247.452 388.85C247.512 390.23 247.572 391.28 247.632 392H236.112C235.992 390.74 235.902 389.87 235.842 389.39C235.842 388.85 235.842 388.28 235.842 387.68C235.842 385.94 235.962 383.72 236.202 381.02C236.502 378.26 236.862 375.47 237.282 372.65C237.702 369.23 238.092 366.02 238.452 363.02C238.872 360.02 239.082 357.92 239.082 356.72C239.082 355.7 238.932 355.07 238.632 354.83C238.392 354.53 238.122 354.38 237.822 354.38C237.162 354.38 236.472 354.89 235.752 355.91C235.032 356.93 234.282 358.79 233.502 361.49L228.552 360.05C228.852 358.79 229.272 357.35 229.812 355.73C230.352 354.11 231.102 352.58 232.062 351.14C233.022 349.64 234.192 348.41 235.572 347.45C236.952 346.49 238.632 346.01 240.612 346.01C242.532 346.01 244.272 346.58 245.832 347.72C247.392 348.86 248.172 351.02 248.172 354.2C248.172 355.34 248.112 356.27 247.992 356.99C247.872 357.71 247.752 358.58 247.632 359.6H247.722C249.162 356 250.752 353.21 252.492 351.23C254.292 349.25 256.122 347.9 257.982 347.18C259.902 346.4 261.702 346.01 263.382 346.01C266.322 346.01 268.512 346.94 269.952 348.8C271.452 350.6 272.202 353.12 272.202 356.36C272.202 356.84 272.202 357.35 272.202 357.89C272.202 358.43 272.142 359 272.022 359.6H272.112C273.552 356 275.082 353.21 276.702 351.23C278.382 349.25 280.122 347.9 281.922 347.18C283.722 346.4 285.462 346.01 287.142 346.01C290.982 346.01 293.742 347.27 295.422 349.79C297.162 352.25 298.032 355.61 298.032 359.87C298.032 362.03 297.852 364.43 297.492 367.07C297.132 369.71 296.742 372.35 296.322 374.99C295.962 377.63 295.782 380.06 295.782 382.28C295.782 383.24 295.932 383.87 296.232 384.17C296.532 384.47 296.832 384.62 297.132 384.62C297.792 384.62 298.482 384.11 299.202 383.09C299.922 382.07 300.672 380.21 301.452 377.51L306.402 378.95C306.162 380.21 305.682 381.65 304.962 383.27C304.242 384.89 303.312 386.45 302.172 387.95C301.092 389.39 299.742 390.59 298.122 391.55C296.562 392.51 294.762 392.99 292.722 392.99ZM336.276 346.01C337.956 346.01 339.906 346.19 342.126 346.55C344.406 346.85 346.776 347.3 349.236 347.9C348.936 350.12 348.546 352.85 348.066 356.09C347.586 359.33 347.106 362.66 346.626 366.08C346.206 369.44 345.846 372.56 345.546 375.44C345.246 378.26 345.096 380.45 345.096 382.01C345.096 383.09 345.216 383.81 345.456 384.17C345.756 384.47 346.056 384.62 346.356 384.62C347.076 384.62 347.826 384.11 348.606 383.09C349.386 382.07 350.166 380.21 350.946 377.51L355.806 378.95C355.566 380.21 355.146 381.65 354.546 383.27C353.946 384.89 353.136 386.45 352.116 387.95C351.156 389.39 349.926 390.59 348.426 391.55C346.986 392.51 345.276 392.99 343.296 392.99C341.376 392.99 339.696 392.42 338.256 391.28C336.816 390.14 336.096 387.98 336.096 384.8C336.096 384.02 336.126 383.15 336.186 382.19C336.246 381.23 336.336 380.36 336.456 379.58H336.366C334.146 384.8 331.716 388.34 329.076 390.2C326.496 392.06 323.826 392.99 321.066 392.99C317.766 392.99 314.946 391.67 312.606 389.03C310.266 386.33 309.096 382.19 309.096 376.61C309.096 372.47 309.696 368.57 310.896 364.91C312.096 361.25 313.866 358.01 316.206 355.19C318.546 352.31 321.396 350.06 324.756 348.44C328.116 346.82 331.956 346.01 336.276 346.01ZM332.946 351.95C329.526 351.95 326.736 354.08 324.576 358.34C322.476 362.6 321.426 368.84 321.426 377.06C321.426 379.52 321.726 381.47 322.326 382.91C322.926 384.29 323.766 384.98 324.846 384.98C326.166 384.98 327.396 384.32 328.536 383C329.676 381.62 330.696 379.79 331.596 377.51C332.556 375.17 333.366 372.59 334.026 369.77C334.746 366.89 335.316 363.98 335.736 361.04C336.216 358.04 336.516 355.19 336.636 352.49C336.336 352.37 335.796 352.25 335.016 352.13C334.296 352.01 333.606 351.95 332.946 351.95ZM374.24 392.99C371.36 392.99 368.69 392.57 366.23 391.73C363.83 390.89 361.88 389.69 360.38 388.13C358.88 386.51 358.13 384.65 358.13 382.55C358.13 380.69 358.67 379.19 359.75 378.05C360.89 376.85 362.27 376.25 363.89 376.25C365.51 376.25 366.83 376.79 367.85 377.87C368.87 378.95 369.38 380.27 369.38 381.83C369.38 382.73 369.2 383.63 368.84 384.53C369.14 385.13 369.92 385.7 371.18 386.24C372.5 386.78 373.61 387.05 374.51 387.05C377.15 387.05 378.98 386.48 380 385.34C381.08 384.2 381.62 382.91 381.62 381.47C381.62 379.79 380.69 378.35 378.83 377.15C376.97 375.89 374.87 374.6 372.53 373.28C369.71 371.66 367.37 370.16 365.51 368.78C363.65 367.4 362.27 365.96 361.37 364.46C360.53 362.9 360.11 361.07 360.11 358.97C360.11 356.87 360.77 354.83 362.09 352.85C363.41 350.87 365.33 349.25 367.85 347.99C370.43 346.67 373.55 346.01 377.21 346.01C379.61 346.01 381.95 346.4 384.23 347.18C386.57 347.96 388.49 349.1 389.99 350.6C391.55 352.04 392.33 353.81 392.33 355.91C392.33 357.47 391.82 358.85 390.8 360.05C389.78 361.25 388.4 361.85 386.66 361.85C385.04 361.85 383.72 361.31 382.7 360.23C381.74 359.09 381.26 357.8 381.26 356.36C381.26 355.4 381.44 354.53 381.8 353.75C381.32 353.09 380.57 352.64 379.55 352.4C378.59 352.1 377.69 351.95 376.85 351.95C375.59 351.95 374.27 352.37 372.89 353.21C371.51 353.99 370.82 355.13 370.82 356.63C370.82 357.47 371 358.22 371.36 358.88C371.78 359.48 372.59 360.2 373.79 361.04C374.99 361.82 376.79 362.93 379.19 364.37C381.17 365.51 383.18 366.74 385.22 368.06C387.32 369.38 389.06 370.94 390.44 372.74C391.88 374.48 392.6 376.61 392.6 379.13C392.6 381.83 391.79 384.23 390.17 386.33C388.55 388.43 386.36 390.08 383.6 391.28C380.84 392.42 377.72 392.99 374.24 392.99Z" fill="#2C8894"/>
<path d="M413.14 146.999H397.763C393.191 146.999 389.484 149.785 389.484 153.222V158.364C388.143 167.831 383.658 176.988 365.609 179H323.247C318.675 179 314.968 181.785 314.968 185.222V220.778C314.968 224.214 318.675 227 323.247 227H370.559C375.132 227 378.839 224.214 378.839 220.778V193.829C378.839 190.579 378.969 187.255 380.286 184.284C384.593 174.566 395.287 171.88 406.297 171H413.14C417.713 171 421.42 168.214 421.42 164.777V153.222C421.42 149.785 417.713 146.999 413.14 146.999ZM455.72 114.999H440.344C435.771 114.999 432.064 117.785 432.064 121.221V132.777C432.064 136.213 435.771 138.999 440.344 138.999H455.72C460.293 138.999 464 136.213 464 132.777V121.221C464 117.785 460.293 114.999 455.72 114.999Z" fill="#2C8894"/>
<path fill-rule="evenodd" clip-rule="evenodd" d="M297.028 164.682C304.486 164.682 310.516 160.562 310.377 155.516C310.372 155.343 310.36 155.17 310.34 154.999H313.19C314.172 154.999 314.968 155.795 314.968 156.777C314.968 164.619 323.457 170.999 333.893 170.999H323.247C312.812 170.999 304.322 177.379 304.322 185.222V220.778C304.322 228.62 312.812 235 323.247 235H370.56C380.995 235 389.484 228.62 389.484 220.777V229.989C389.484 237.174 383.659 242.999 376.473 242.999C371.9 242.999 368.193 245.785 368.193 249.222V260.777C368.193 264.214 371.9 267 376.473 267C383.659 267 389.216 273.645 383.559 278.076C379.684 281.111 374.232 283 368.194 283H155.291C143.532 283 134 275.837 134 267V170.999C134 164.846 138.622 159.504 145.399 156.827C145.386 156.972 145.379 157.119 145.379 157.267C145.379 161.194 150.104 164.378 155.933 164.378C161.761 164.378 166.486 161.194 166.486 157.267C166.486 156.474 166.293 155.711 165.938 154.999H192.129C192.297 156.175 192.425 157.444 192.51 158.813L192.517 158.808C193.307 171.864 209.258 182.286 228.83 182.286C240.128 182.286 250.222 178.813 256.889 173.365C274.192 159.266 282.359 161.447 291.601 163.914L291.832 163.976C291.929 164.001 292.025 164.027 292.122 164.053L292.122 164.047C293.642 164.453 295.294 164.682 297.028 164.682ZM192.129 154.999C190.203 141.492 183.05 140.178 176.378 138.952C176.059 138.893 175.741 138.835 175.425 138.775L175.43 138.77C170.331 137.813 166.763 134.38 167.792 130.509C168.572 127.577 172.126 125.225 176.489 124.741C181.121 124.227 185.303 125.726 187.457 128.141L187.464 128.135L187.542 128.223C191.852 133.071 202.863 129.369 199.672 124.142C197.45 120.504 193.476 118.404 189.853 116.49C189.136 116.111 188.434 115.74 187.761 115.365L187.746 115.357L187.738 115.353C185.536 114.124 184.113 112.283 184.045 110.217C183.921 106.495 188.469 103.28 193.993 103.193C199.637 103.104 204.261 106.108 204.418 109.866L204.428 109.862C204.453 110.455 204.456 111.062 204.459 111.681C204.462 112.51 204.466 113.36 204.525 114.227C205.082 122.458 223.61 122.324 223.757 114.085C223.872 107.71 219.913 102.493 215.999 97.5685C215.991 97.5581 215.983 97.5476 215.975 97.5372C215.966 97.5268 215.958 97.5164 215.95 97.5061C215.948 97.504 215.947 97.5018 215.945 97.4996C214.841 96.1142 214.212 94.5311 214.212 92.8485C214.212 87.0465 221.659 82.4164 230.464 83.0599C237.241 83.5551 242.72 87.3011 243.376 91.8729C243.669 93.9185 243.028 95.8492 241.713 97.4996C241.712 97.5005 241.711 97.5015 241.711 97.5025C241.71 97.5033 241.71 97.5041 241.709 97.505C241.692 97.5265 241.676 97.5479 241.658 97.5694C237.921 102.271 234.149 107.242 233.92 113.232C233.557 122.74 254.87 123.249 255.838 113.759C255.918 112.977 255.963 112.203 256.006 111.44C256.041 110.827 256.076 110.221 256.128 109.625L256.141 109.63C256.5 105.46 261.992 102.219 268.432 102.755C273.357 103.166 277.341 105.889 277.894 109.211C278.354 111.972 276.537 114.461 273.558 115.959L273.569 115.963C272.86 116.32 272.128 116.672 271.388 117.028C264.183 120.494 256.101 124.382 258.542 137.095C259.631 142.766 265.137 147.745 273.152 149.626C280.316 151.307 285.237 149.628 290.525 147.823C290.685 147.769 290.845 147.714 291.006 147.659L291.007 147.666C292.915 147.014 295.081 146.654 297.382 146.695C304.147 146.815 309.817 150.498 310.34 154.999H192.129ZM165.938 154.999C164.533 152.184 160.584 150.156 155.933 150.156C150.324 150.156 145.736 153.105 145.399 156.827C148.354 155.659 151.72 154.999 155.291 154.999H165.938ZM277.208 92.2728C277.208 88.0645 282.271 84.6532 288.517 84.6532C294.762 84.6532 299.826 88.0645 299.826 92.2728C299.826 96.4811 294.762 99.8924 288.517 99.8924C282.271 99.8924 277.208 96.4811 277.208 92.2728ZM277.221 175.702C277.221 172.662 280.879 170.198 285.39 170.198C289.901 170.198 293.559 172.662 293.559 175.702C293.559 178.742 289.901 181.206 285.39 181.206C280.879 181.206 277.221 178.742 277.221 175.702ZM274.753 219C279.325 219 283.032 216.214 283.032 212.778V201.222C283.032 197.785 279.325 195 274.753 195H259.376C254.804 195 251.097 197.785 251.097 201.222V212.778C251.097 216.214 254.804 219 259.376 219H274.753ZM410.774 105.222C410.774 101.785 407.067 98.9993 402.495 98.9993L387.118 98.9989C382.545 98.9989 378.838 101.785 378.838 105.221V110.566C377.997 119.635 373.67 126.04 358.954 126.999H333.892C329.319 126.999 325.612 129.785 325.612 133.221V156.777C325.612 160.214 329.319 162.999 333.892 162.999H365.236C369.809 162.999 373.516 160.214 373.516 156.777V137.943C374.792 126.883 383.315 123.632 395.383 122.999H402.495C407.067 122.999 410.774 120.213 410.774 116.777V105.222Z" fill="#414E56"/>
</svg>
