<svg width="48" height="48" viewBox="0 0 48 48" fill="none" xmlns="http://www.w3.org/2000/svg">
<path d="M28.7 6C30.64 6.01998 32.22 7.01887 33.14 8.81687C33.3775 9.29134 33.7088 9.98432 34.0556 10.7153L34.4744 11.5993L34.68 12.0333L34.88 12.4728C34.96 12.6127 35.1 12.7125 35.28 12.7125C40.08 12.7125 44 16.6282 44 21.4229V33.2897C44 38.0844 40.08 42 35.28 42H12.72C7.9 42 4 38.0844 4 33.2897V21.4229C4 16.6282 7.9 12.7125 12.72 12.7125C12.88 12.7125 13.04 12.6326 13.1 12.4728L13.22 12.2331C13.78 11.0544 14.46 9.61598 14.86 8.81687C15.78 7.01887 17.34 6.01998 19.28 6H28.7ZM24 18.8058C21.9 18.8058 19.92 19.6249 18.42 21.1232C16.94 22.6215 16.12 24.5794 16.14 26.657C16.14 28.7547 16.96 30.7125 18.44 32.2109C19.94 33.6892 21.9 34.5083 24 34.5083C26.16 34.5083 28.12 33.6293 29.54 32.2109C30.96 30.7925 31.84 28.8346 31.86 26.657C31.86 24.5794 31.04 22.6016 29.56 21.1032C28.08 19.6249 26.1 18.8058 24 18.8058ZM24 21.8024C25.3 21.8024 26.52 22.3019 27.44 23.2209C28.36 24.1398 28.86 25.3585 28.86 26.657C28.84 29.3341 26.68 31.5117 24 31.5117C22.7 31.5117 21.48 31.0122 20.56 30.0932C19.64 29.1743 19.14 27.9556 19.14 26.657V26.6371C19.12 25.3785 19.62 24.1598 20.54 23.2408C21.48 22.3019 22.7 21.8024 24 21.8024ZM35.22 18.3263C34.22 18.3263 33.42 19.1454 33.42 20.1443C33.42 21.1432 34.22 21.9423 35.22 21.9423C36.22 21.9423 37.04 21.1432 37.04 20.1443C37.04 19.1454 36.22 18.3263 35.22 18.3263Z" fill="black"/>
</svg>
