<svg width="48" height="48" viewBox="0 0 48 48" fill="none" xmlns="http://www.w3.org/2000/svg">
<path d="M44.478 24.0825C45.318 24.0825 46 24.7512 46 25.5769C46 26.4006 45.318 27.0674 44.478 27.0674H42.354V34.1866C42.354 38.4973 38.78 42 34.388 42H31.202C30.36 42 29.678 41.3312 29.678 40.5056C29.678 39.6819 30.36 39.0131 31.202 39.0131H34.388C37.102 39.0131 39.31 36.8499 39.31 34.1866V27.0674H34.064V29.0502C34.084 31.5311 32.054 33.559 29.524 33.5825H18.476C15.948 33.559 13.918 31.5311 13.938 29.0502V27.0674H8.692V34.1944C8.692 36.8479 10.894 39.0072 13.6 39.0111L16.856 39.0131C17.696 39.0131 18.378 39.6819 18.378 40.5056C18.376 41.3312 17.696 42 16.854 42L13.596 41.998C9.214 41.9941 5.646 38.4934 5.646 34.1944V27.0674H3.524C2.684 27.0674 2 26.4006 2 25.5769C2 24.7512 2.684 24.0825 3.524 24.0825H44.478ZM29.525 13.4853C30.735 13.4853 31.897 13.9619 32.743 14.8111C33.595 15.6681 34.067 16.8194 34.065 18.0177V20.5084C34.055 20.8006 33.817 21.0379 33.519 21.0457H14.479C14.183 21.0359 13.945 20.7986 13.9388 20.5084V18.0177C13.917 15.5367 15.949 13.5108 18.477 13.4853H29.525ZM34.3872 6.00059C38.7812 6.00059 42.3532 9.50329 42.3532 13.8121V17.5246C42.3532 18.3483 41.6732 19.019 40.8312 19.019C39.9912 19.019 39.3092 18.3483 39.3092 17.5246V13.8121C39.3092 11.1507 37.1012 8.98554 34.3872 8.98554H31.2012C30.3612 8.98554 29.6792 8.31873 29.6792 7.49502C29.6792 6.66936 30.3612 6.00059 31.2012 6.00059H34.3872ZM16.8554 6C17.6954 6 18.3774 6.66877 18.3774 7.49444C18.3774 8.31814 17.6974 8.98691 16.8554 8.98691L13.5974 8.98887C10.8934 8.99279 8.6934 11.1521 8.6934 13.8056V17.524C8.6934 18.3477 8.0094 19.0185 7.1694 19.0185C6.3294 19.0185 5.6474 18.3477 5.6474 17.524V13.8056C5.6474 9.50663 9.2134 6.00588 13.5954 6.00196L16.8554 6Z" fill="black"/>
</svg>
