<svg width="48" height="48" viewBox="0 0 48 48" fill="none" xmlns="http://www.w3.org/2000/svg">
<path d="M24.8723 8C25.5222 8 26.0503 8.51298 26.0503 9.14621V13.9565C26.0503 14.727 26.7079 15.3658 27.501 15.3658C28.3133 15.3658 28.9516 14.727 28.9516 13.9565V9.14621C28.9516 8.51298 29.4797 8 30.1315 8H36.4371C40.6151 8 44 11.2883 44 15.347V20.0822C44 20.458 43.8453 20.815 43.5745 21.0781C43.3037 21.3412 42.9362 21.4915 42.5493 21.4915C41.118 21.4915 39.9574 22.6189 39.9574 23.9906C39.9574 25.3717 41.1044 26.4935 42.5222 26.5085C43.3211 26.516 44 27.0572 44 27.8332V32.653C44 36.7098 40.6151 40 36.4371 40H30.1315C29.4797 40 28.9516 39.487 28.9516 38.8538V34.7951C28.9516 34.0059 28.3133 33.3858 27.501 33.3858C26.7079 33.3858 26.0503 34.0059 26.0503 34.7951V38.8538C26.0503 39.487 25.5222 40 24.8723 40H11.5629C7.40426 40 4 36.7117 4 32.653V27.8332C4 27.0572 4.67892 26.516 5.47776 26.5085C6.89749 26.4935 8.04255 25.3717 8.04255 23.9906C8.04255 22.6565 6.9207 21.6418 5.45068 21.6418C5.06383 21.6418 4.69632 21.4915 4.42553 21.2284C4.15474 20.9654 4 20.6083 4 20.2325V15.3658C4 11.3146 7.41199 8 11.5822 8H24.8723ZM27.501 19.4058C26.7079 19.4058 26.0503 20.0446 26.0503 20.815V28.3312C26.0503 29.1016 26.7079 29.7405 27.501 29.7405C28.3133 29.7405 28.9516 29.1016 28.9516 28.3312V20.815C28.9516 20.0446 28.3133 19.4058 27.501 19.4058Z" fill="black"/>
</svg>
