<svg width="48" height="48" viewBox="0 0 48 48" fill="none" xmlns="http://www.w3.org/2000/svg">
<path d="M26.0291 4.84108C28.068 3.79574 30.5674 4.46477 31.8117 6.38866C32.591 7.59369 33.9029 8.35054 35.3362 8.42227C37.6245 8.53679 39.455 10.3657 39.5706 12.6539C39.6431 14.0874 40.4007 15.3986 41.6064 16.1773C43.5315 17.4205 44.2019 19.9201 43.1577 21.96C42.5037 23.2376 42.5041 24.752 43.1589 26.0291C44.2043 28.068 43.5352 30.5674 41.6113 31.8117C40.4063 32.591 39.6495 33.9029 39.5777 35.3362C39.4632 37.6245 37.6343 39.455 35.3461 39.5706C33.9126 39.6431 32.6014 40.4007 31.8227 41.6064C30.5795 43.5315 28.0799 44.2019 26.04 43.1577C24.7624 42.5037 23.248 42.5041 21.9709 43.1589C19.932 44.2043 17.4326 43.5352 16.1883 41.6113C15.409 40.4063 14.0971 39.6495 12.6638 39.5777C10.3755 39.4632 8.54499 37.6343 8.42937 35.3461C8.35693 33.9126 7.59931 32.6014 6.39358 31.8227C4.46852 30.5795 3.79806 28.0799 4.84229 26.04C5.49629 24.7624 5.4959 23.248 4.84108 21.9709C3.79574 19.932 4.46477 17.4326 6.38866 16.1883C7.59369 15.409 8.35054 14.0971 8.42227 12.6638C8.53679 10.3755 10.3657 8.54499 12.6539 8.42937C14.0874 8.35693 15.3986 7.59932 16.1773 6.39358C17.4205 4.46852 19.9201 3.79806 21.96 4.84229C23.2376 5.49629 24.752 5.4959 26.0291 4.84108Z" fill="#6DD596"/>
<path d="M21.8523 31.1436C21.4601 31.5237 20.8355 31.5189 20.4493 31.1328L14.7075 25.3927C14.3168 25.0022 14.3168 24.3688 14.7075 23.9782L15.6267 23.0595C16.0172 22.6692 16.6503 22.6692 17.0407 23.0597L20.4845 26.5035C20.8707 26.8897 21.4954 26.8946 21.8876 26.5144L30.9856 17.696C31.3821 17.3116 32.0152 17.3214 32.3996 17.718L33.304 18.6509C33.6884 19.0475 33.6785 19.6806 33.2819 20.065L21.8523 31.1436Z" fill="#5C5D6C"/>
</svg>
