<svg width="49" height="49" viewBox="0 0 49 49" fill="none" xmlns="http://www.w3.org/2000/svg">
<path opacity="0.4" d="M30.3051 13.8022C31.5151 13.8022 32.6771 14.2788 33.5231 15.128C34.3751 15.985 34.8471 17.1363 34.8451 18.3345V20.8253C34.8351 21.1175 34.5971 21.3548 34.2991 21.3626H15.2591C14.9631 21.3528 14.7251 21.1155 14.7189 20.8253V18.3345C14.6971 15.8536 16.7291 13.8277 19.2571 13.8022H30.3051ZM35.1673 6.31748C39.5613 6.31748 43.1333 9.82019 43.1333 14.1289V17.8415C43.1333 18.6652 42.4533 19.3359 41.6113 19.3359C40.7713 19.3359 40.0893 18.6652 40.0893 17.8415V14.1289C40.0893 11.4676 37.8813 9.30243 35.1673 9.30243H31.9813C31.1413 9.30243 30.4593 8.63562 30.4593 7.81192C30.4593 6.98625 31.1413 6.31748 31.9813 6.31748H35.1673ZM17.6355 6.31689C18.4755 6.31689 19.1575 6.98566 19.1575 7.81133C19.1575 8.63503 18.4775 9.3038 17.6355 9.3038L14.3775 9.30577C11.6735 9.30969 9.47349 11.469 9.47349 14.1225V17.8409C9.47349 18.6646 8.78949 19.3353 7.94949 19.3353C7.10949 19.3353 6.42749 18.6646 6.42749 17.8409V14.1225C6.42749 9.82352 9.99349 6.32278 14.3755 6.31886L17.6355 6.31689Z" fill="black"/>
<path d="M45.258 24.3994H4.30403C3.46403 24.3994 2.78003 25.0681 2.78003 25.8938C2.78003 26.7175 3.46403 27.3843 4.30403 27.3843H6.42603V34.5113C6.42603 38.8103 9.99403 42.311 14.376 42.3149L17.634 42.3169C18.476 42.3169 19.156 41.6481 19.158 40.8224C19.158 39.9987 18.476 39.33 17.636 39.33L14.38 39.328C11.674 39.3241 9.47203 37.1648 9.47203 34.5113V27.3843H14.718V29.3671C14.698 31.848 16.728 33.8759 19.256 33.8994H30.304C32.834 33.8759 34.864 31.848 34.844 29.3671V27.3843H40.09V34.5035C40.09 37.1668 37.882 39.33 35.168 39.33H31.982C31.14 39.33 30.458 39.9987 30.458 40.8224C30.458 41.6481 31.14 42.3169 31.982 42.3169H35.168C39.56 42.3169 43.134 38.8142 43.134 34.5035V27.3843H45.258C46.098 27.3843 46.78 26.7175 46.78 25.8938C46.78 25.0681 46.098 24.3994 45.258 24.3994Z" fill="black"/>
</svg>
