<svg width="49" height="49" viewBox="0 0 49 49" fill="none" xmlns="http://www.w3.org/2000/svg">
<path d="M25.0549 29.1623C29.1827 29.1875 37.7397 29.5752 37.7397 35.5187C37.7397 41.4917 28.8745 41.8812 24.9946 41.9066L24.26 41.9084C23.4956 41.9084 22.8753 41.2847 22.8753 40.5161C22.8753 39.7476 23.4956 39.1238 24.26 39.1238C29.1453 39.1238 34.9703 38.4982 34.9703 35.5187C34.9703 33.1462 31.3682 31.9451 24.26 31.9451C19.3747 31.9451 13.5497 32.5707 13.5497 35.5521C13.5497 36.2167 13.7435 37.0725 15.2556 37.8169C15.876 38.1232 16.6625 38.3794 17.5893 38.578C18.3371 38.7377 18.8153 39.4784 18.6547 40.2302C18.4959 40.9821 17.7574 41.4684 17.0133 41.3014C15.8649 41.0545 14.8642 40.724 14.0371 40.3193C11.3452 38.992 10.7802 36.9945 10.7802 35.5521C10.7802 29.5773 19.6454 29.1877 23.5254 29.1623L25.0549 29.1623ZM38.3985 27.9039C39.4232 27.9726 40.4534 28.123 41.4652 28.3476C43.7195 28.7968 45.2058 29.7195 45.8538 31.0839C46.3948 32.2256 46.3948 33.5325 45.8538 34.6742C45.2131 36.0275 43.7306 36.9539 41.443 37.4272C41.3507 37.4477 41.2565 37.457 41.1624 37.457C40.5199 37.457 39.9438 37.0021 39.8091 36.345C39.6558 35.5913 40.1377 34.8543 40.8873 34.7002C42.776 34.3085 43.2413 33.7144 43.3539 33.4768C43.533 33.0981 43.533 32.6619 43.3539 32.2832C43.1176 31.7838 42.2 31.3327 40.8965 31.0728C39.99 30.8723 39.0964 30.7405 38.2139 30.6811C37.4495 30.631 36.8735 29.9645 36.9252 29.1978C36.975 28.4311 37.6415 27.8631 38.3985 27.9039ZM10.1353 27.8753C10.8738 27.8178 11.5588 28.4025 11.6105 29.1692C11.6622 29.9378 11.0862 30.6024 10.3218 30.6525C9.43189 30.7119 8.53829 30.8437 7.66499 31.0405C6.32459 31.3059 5.40329 31.7589 5.16512 32.2601C4.98603 32.6407 4.98603 33.0807 5.16512 33.4612C5.27959 33.7007 5.74485 34.2966 7.64099 34.6883C8.39058 34.8424 8.87246 35.5775 8.71922 36.3312C8.58629 36.9903 8.0084 37.4432 7.36405 37.4432C7.27173 37.4432 7.17942 37.4339 7.08526 37.4154C4.79401 36.9438 3.30775 36.0156 2.66524 34.6568C2.12428 33.5151 2.12428 32.2063 2.66524 31.0646C3.31514 29.6927 4.80509 28.7664 7.09449 28.3134C8.07118 28.0944 9.10694 27.944 10.1353 27.8753ZM24.2605 7.90842C29.2972 7.90842 33.396 12.0278 33.396 17.0939C33.396 22.16 29.2972 26.2794 24.2605 26.2794C22.1982 26.2794 20.2541 25.6129 18.6404 24.3506C18.0367 23.879 17.9278 23.0047 18.3967 22.3976C18.8638 21.7887 19.7371 21.6811 20.3409 22.1544C21.4634 23.0307 22.8186 23.4948 24.2605 23.4948C27.7722 23.4948 30.6265 20.6229 30.6265 17.0939C30.6265 13.5649 27.7722 10.693 24.2605 10.693C20.7489 10.693 17.8927 13.5649 17.8927 17.0939C17.8927 17.8624 17.2723 18.4862 16.508 18.4862C15.7436 18.4862 15.1233 17.8624 15.1233 17.0939C15.1233 12.0278 19.222 7.90842 24.2605 7.90842ZM35.6261 9.81049C39.603 9.81049 42.8396 13.0629 42.8396 17.0634C42.8396 21.0621 39.603 24.3164 35.6261 24.3164C34.8617 24.3164 34.2414 23.6927 34.2414 22.9241C34.2414 22.1556 34.8617 21.5318 35.6261 21.5318C38.0761 21.5318 40.0701 19.5269 40.0701 17.0634C40.0701 14.6 38.0761 12.5951 35.6261 12.5951C34.8617 12.5951 34.2414 11.9713 34.2414 11.2028C34.2414 10.4324 34.8617 9.81049 35.6261 9.81049ZM12.9162 9.73363C13.6806 9.73363 14.3009 10.3574 14.3009 11.1259C14.3009 11.8945 13.6806 12.5182 12.9162 12.5182C10.4569 12.5182 8.45557 14.5306 8.45557 17.0033C8.45557 19.476 10.4569 21.4865 12.9162 21.4865C13.6806 21.4865 14.3009 22.1103 14.3009 22.8788C14.3009 23.6474 13.6806 24.2711 12.9162 24.2711C8.93007 24.2711 5.68614 21.0113 5.68614 17.0033C5.68614 12.9953 8.93007 9.73363 12.9162 9.73363Z" fill="black"/>
</svg>
