<svg width="49" height="49" viewBox="0 0 49 49" fill="none" xmlns="http://www.w3.org/2000/svg">
<path d="M29.5979 6.56064C31.5519 6.57462 33.1239 7.57557 34.0399 9.37766C34.4579 10.2008 35.1539 11.6732 35.7219 12.878C35.8639 13.1757 36.0139 13.2716 36.1779 13.2716C40.9879 13.2716 44.9019 17.1814 44.9019 21.9864V33.8458C44.9019 38.6508 40.9879 42.5606 36.1779 42.5606H22.0619C21.2339 42.5606 20.5619 41.8893 20.5619 41.0622C20.5619 40.2351 21.2339 39.5638 22.0619 39.5638H36.1779C39.3339 39.5638 41.9019 36.9985 41.9019 33.8458V21.9864C41.9019 18.8337 39.3339 16.2684 36.1779 16.2684C34.8599 16.2684 33.6439 15.4992 33.0819 14.3105C32.4539 12.9799 31.7719 11.5394 31.3639 10.7322C30.9539 9.92708 30.4059 9.56347 29.5859 9.55748H20.2079C19.3999 9.56347 18.8499 9.92708 18.4399 10.7342C18.1924 11.2225 17.8433 11.9472 17.483 12.7049L17.051 13.6171L16.8419 14.0607L16.7239 14.3105C16.1619 15.4992 14.9459 16.2684 13.6279 16.2684C10.4699 16.2684 7.90186 18.8337 7.90186 21.9864V33.8458C7.90186 36.9985 10.4699 39.5638 13.6279 39.5638H15.1179C15.9459 39.5638 16.6179 40.2351 16.6179 41.0622C16.6179 41.8893 15.9459 42.5606 15.1179 42.5606H13.6279C8.81586 42.5606 4.90186 38.6508 4.90186 33.8458V21.9864C4.90186 17.1814 8.81586 13.2716 13.6279 13.2716C13.7939 13.2716 13.9419 13.1777 14.0119 13.0298L14.1299 12.7821C14.6879 11.5973 15.3579 10.1788 15.7639 9.37966C16.6799 7.57557 18.2539 6.57462 20.1939 6.56064H29.5979ZM24.9035 19.3533C26.9935 19.3533 28.9635 20.1705 30.4515 21.6569C31.9415 23.1453 32.7615 25.1212 32.7595 27.215C32.7775 29.2789 31.9655 31.2448 30.4795 32.7392C28.9855 34.2416 27.0055 35.0687 24.9035 35.0687C22.7975 35.0667 20.8255 34.2456 19.3415 32.7572C17.8575 31.2688 17.0415 29.2928 17.0454 27.1991C17.0454 26.3919 17.1715 25.5967 17.4155 24.8276C17.6655 24.0384 18.5055 23.6068 19.2995 23.8546C20.0895 24.1063 20.5255 24.9494 20.2755 25.7366C20.1235 26.2101 20.0454 26.7036 20.0454 27.2011C20.0435 28.4997 20.5475 29.7204 21.4675 30.6414C22.3855 31.5624 23.6035 32.0699 24.8995 32.0719C26.1995 32.0719 27.4255 31.5585 28.3515 30.6274C29.2695 29.7024 29.7695 28.4957 29.7595 27.225C29.7615 25.9184 29.2535 24.6997 28.3295 23.7767C27.4095 22.8576 26.1935 22.3502 24.9035 22.3502C24.5435 22.3502 24.1895 22.3881 23.8435 22.4641C23.0335 22.6519 22.2335 22.1364 22.0535 21.3312C21.8715 20.5241 22.3815 19.7209 23.1895 19.5431C23.7475 19.4153 24.3235 19.3533 24.8995 19.3533H24.9035ZM35.2421 19.6274C35.6021 19.4876 36.0221 19.4876 36.3821 19.6274C36.5621 19.7074 36.7421 19.8272 36.8621 19.9491C37.0021 20.089 37.1221 20.2688 37.2021 20.4486C37.2821 20.6264 37.3221 20.8262 37.3221 21.008C37.3221 21.4056 37.1621 21.7852 36.8621 22.0649C36.7221 22.2047 36.5621 22.3246 36.3821 22.4045C36.2021 22.4844 36.0021 22.5064 35.8021 22.5064C35.4221 22.5064 35.0421 22.3646 34.7421 22.0649C34.4621 21.7852 34.3021 21.4056 34.3021 21.008C34.3021 20.8262 34.3421 20.6264 34.4221 20.4486C34.5021 20.2688 34.6221 20.089 34.7421 19.9491C34.8821 19.8272 35.0621 19.7074 35.2421 19.6274Z" fill="black"/>
</svg>
