<svg width="48" height="48" viewBox="0 0 48 48" fill="none" xmlns="http://www.w3.org/2000/svg">
<path d="M24.0135 4C27.249 4 30.4721 4.79813 33.336 6.30806C43.0865 11.4528 46.8362 23.571 41.695 33.3248C38.1883 39.9759 31.2841 44 23.9906 44C22.5657 44 21.1268 43.8467 19.6948 43.5296C18.8882 43.3499 18.3792 42.55 18.557 41.743C18.7349 40.9361 19.5328 40.4304 20.3447 40.6049C27.7932 42.261 35.483 38.6862 39.0461 31.9276C43.4176 23.6362 40.2296 13.3309 31.9393 8.95793C29.5052 7.67352 26.7646 6.9952 24.0117 6.9952C14.6206 6.9952 6.99421 14.6224 6.99421 23.9974C6.99068 26.7283 7.65645 29.4469 8.91929 31.8624L9.30325 32.613C9.77351 33.4939 9.87743 34.588 9.57273 35.5782C9.15178 36.6882 8.80129 37.7682 8.51243 38.843C9.63613 38.5047 11.0082 38.0061 11.9998 37.6449L12.4066 37.4987C13.1763 37.2115 14.0411 37.6185 14.3229 38.3972C14.6047 39.1742 14.2014 40.034 13.4247 40.3141L13.0231 40.4604C11.5401 40.9978 9.51108 41.736 8.1408 42.0425C8.02456 42.0672 7.89951 42.0831 7.78502 42.0795C6.86563 42.0795 6.30555 41.7078 5.99732 41.3942C5.52353 40.9132 5.29809 40.2384 5.32451 39.3892C5.32803 39.2923 5.34036 39.1918 5.36326 39.0949C5.71904 37.5797 6.18226 36.068 6.74234 34.6039C6.78285 34.4612 6.7582 34.2022 6.64371 33.9855L6.25799 33.2367C4.78027 30.4071 3.9965 27.2057 4.00001 23.9956C4.00001 12.9697 12.9685 4 23.9906 4H24.0135ZM23.9913 21.619C25.3035 21.619 26.369 22.6867 26.369 23.9975C26.369 25.3084 25.3035 26.3761 23.9913 26.3761C22.6792 26.3761 21.6136 25.3084 21.6136 23.9975C21.6136 22.6867 22.6792 21.619 23.9913 21.619ZM32.7977 21.619C34.1099 21.619 35.1755 22.6867 35.1755 23.9975C35.1755 25.3084 34.1099 26.3761 32.7977 26.3761C31.4856 26.3761 30.42 25.3084 30.42 23.9975C30.42 22.6867 31.4856 21.619 32.7977 21.619ZM15.1847 21.6197C16.4969 21.6197 17.5624 22.6856 17.5624 23.9982C17.5624 25.3091 16.4969 26.375 15.1847 26.375C13.8726 26.375 12.807 25.3091 12.807 23.9982C12.807 22.6856 13.8726 21.6197 15.1847 21.6197Z" fill="black"/>
</svg>
