<svg width="48" height="48" viewBox="0 0 48 48" fill="none" xmlns="http://www.w3.org/2000/svg">
<path d="M24.7953 28.2539C28.9232 28.2791 37.4802 28.6668 37.4802 34.6103C37.4802 40.5833 28.615 40.9728 24.735 40.9982L24.0005 41C23.2361 41 22.6157 40.3763 22.6157 39.6077C22.6157 38.8391 23.2361 38.2154 24.0005 38.2154C28.8857 38.2154 34.7108 37.5898 34.7108 34.6103C34.7108 32.2378 31.1087 31.0367 24.0005 31.0367C19.1152 31.0367 13.2901 31.6623 13.2901 34.6437C13.2901 35.3083 13.484 36.1641 14.9961 36.9085C15.6165 37.2148 16.403 37.471 17.3298 37.6696C18.0776 37.8293 18.5558 38.57 18.3951 39.3218C18.2363 40.0737 17.4978 40.56 16.7538 40.393C15.6054 40.1461 14.6047 39.8156 13.7776 39.4109C11.0857 38.0836 10.5207 36.0861 10.5207 34.6437C10.5207 28.6689 19.3859 28.2793 23.2659 28.2539L24.7953 28.2539ZM38.139 26.9955C39.1637 27.0642 40.1939 27.2145 41.2057 27.4392C43.46 27.8884 44.9462 28.8111 45.5943 30.1755C46.1352 31.3172 46.1352 32.6241 45.5943 33.7658C44.9536 35.1191 43.471 36.0454 41.1835 36.5188C41.0912 36.5393 40.997 36.5485 40.9029 36.5485C40.2604 36.5485 39.6843 36.0937 39.5495 35.4366C39.3963 34.6829 39.8782 33.9459 40.6278 33.7918C42.5165 33.4001 42.9818 32.806 43.0944 32.5684C43.2735 32.1897 43.2735 31.7534 43.0944 31.3747C42.8581 30.8754 41.9405 30.4243 40.637 30.1644C39.7305 29.9639 38.8369 29.8321 37.9543 29.7727C37.19 29.7225 36.6139 29.0561 36.6656 28.2894C36.7155 27.5227 37.382 26.9546 38.139 26.9955ZM9.8758 26.9669C10.6143 26.9094 11.2993 27.4941 11.351 28.2608C11.4027 29.0294 10.8266 29.694 10.0623 29.7441C9.17237 29.8035 8.27876 29.9353 7.40547 30.1321C6.06506 30.3975 5.14377 30.8505 4.9056 31.3517C4.72651 31.7323 4.72651 32.1723 4.9056 32.5528C5.02007 32.7923 5.48533 33.3882 7.38147 33.7799C8.13106 33.934 8.61294 34.6691 8.4597 35.4228C8.32677 36.0818 7.74888 36.5348 7.10453 36.5348C7.01221 36.5348 6.9199 36.5255 6.82574 36.507C4.53449 36.0354 3.04823 35.1072 2.40572 33.7483C1.86476 32.6066 1.86476 31.2979 2.40572 30.1562C3.05562 28.7843 4.54557 27.858 6.83497 27.405C7.81165 27.186 8.84742 27.0356 9.8758 26.9669ZM24.001 7C29.0377 7 33.1364 11.1194 33.1364 16.1855C33.1364 21.2516 29.0377 25.371 24.001 25.371C21.9387 25.371 19.9946 24.7045 18.3809 23.4422C17.7772 22.9706 17.6682 22.0963 18.1372 21.4892C18.6043 20.8803 19.4776 20.7726 20.0813 21.246C21.2039 22.1222 22.5591 22.5864 24.001 22.5864C27.5127 22.5864 30.367 19.7145 30.367 16.1855C30.367 12.6565 27.5127 9.7846 24.001 9.7846C20.4894 9.7846 17.6332 12.6565 17.6332 16.1855C17.6332 16.954 17.0128 17.5778 16.2485 17.5778C15.4841 17.5778 14.8637 16.954 14.8637 16.1855C14.8637 11.1194 18.9625 7 24.001 7ZM35.3666 8.90207C39.3435 8.90207 42.58 12.1545 42.58 16.155C42.58 20.1537 39.3435 23.408 35.3666 23.408C34.6022 23.408 33.9819 22.7842 33.9819 22.0157C33.9819 21.2471 34.6022 20.6234 35.3666 20.6234C37.8166 20.6234 39.8106 18.6185 39.8106 16.155C39.8106 13.6916 37.8166 11.6867 35.3666 11.6867C34.6022 11.6867 33.9819 11.0629 33.9819 10.2944C33.9819 9.52396 34.6022 8.90207 35.3666 8.90207ZM12.6567 8.82521C13.421 8.82521 14.0414 9.44897 14.0414 10.2175C14.0414 10.9861 13.421 11.6098 12.6567 11.6098C10.1974 11.6098 8.19605 13.6222 8.19605 16.0949C8.19605 18.5676 10.1974 20.5781 12.6567 20.5781C13.421 20.5781 14.0414 21.2018 14.0414 21.9704C14.0414 22.7389 13.421 23.3627 12.6567 23.3627C8.67055 23.3627 5.42662 20.1029 5.42662 16.0949C5.42662 12.0869 8.67055 8.82521 12.6567 8.82521Z" fill="black"/>
</svg>
