<svg width="48" height="48" viewBox="0 0 48 48" fill="none" xmlns="http://www.w3.org/2000/svg">
<path d="M40.4418 38.85C41.3019 38.85 42 39.5556 42 40.425C42 41.2944 41.3019 42 40.4418 42H27.1926C26.3303 42 25.6343 41.2944 25.6343 40.425C25.6343 39.5556 26.3303 38.85 27.1926 38.85H40.4418ZM24.2101 8.0769C26.1672 5.54854 29.5954 5.30075 32.3566 7.48681L35.2445 9.77578C36.5056 10.7754 37.3679 12.0899 37.6691 13.4801C38.0057 15.032 37.6338 16.607 36.6241 17.909L19.4024 40.1182C18.5319 41.2417 17.223 41.8969 15.8081 41.9158L9.16374 41.9998C8.41994 41.9998 7.79041 41.4958 7.62628 40.7818L6.12206 34.2425C5.8021 32.8502 6.1179 31.4076 6.99052 30.2841L9.251 27.3672C9.7808 26.6826 10.7615 26.5608 11.4388 27.1005C12.1161 27.636 12.2345 28.6272 11.7026 29.3118L9.44215 32.2286C9.15543 32.5982 9.05155 33.0707 9.15751 33.5285L10.3771 38.833L15.7686 38.7658C16.2319 38.7595 16.662 38.5453 16.9487 38.1757L34.1704 15.9665C34.6108 15.3995 34.7625 14.7905 34.6254 14.1521C34.4779 13.478 34.0166 12.8039 33.3227 12.2558L30.4347 9.96478C29.317 9.08279 27.74 8.6292 26.6638 10.0215L24.3888 12.953L27.9997 15.8804C28.6708 16.4222 28.7789 17.4155 28.2407 18.0917C27.9333 18.4822 27.4803 18.6838 27.0232 18.6838C26.6825 18.6838 26.3376 18.5704 26.0509 18.3373L22.4669 15.4331L16.5747 23.0329C16.0428 23.7175 15.0643 23.8414 14.3849 23.2996C13.7096 22.7641 13.5912 21.7729 14.121 21.0883L24.2101 8.0769Z" fill="black"/>
</svg>
