<svg width="48" height="48" viewBox="0 0 48 48" fill="none" xmlns="http://www.w3.org/2000/svg">
<path d="M19.183 28.8357C25.7005 28.8357 34.364 29.5673 34.364 35.8989C34.364 42.5739 24.2669 42.9744 19.9374 42.9985L19.183 43C18.355 43 17.6831 42.3322 17.6831 41.5048C17.6831 40.6795 18.355 40.0096 19.183 40.0096C24.7406 40.0096 31.3642 39.2979 31.3642 35.8989C31.3642 33.1976 27.2664 31.826 19.183 31.826C13.6253 31.826 6.9998 32.5378 6.9998 35.9388C6.9998 36.7003 7.22378 37.6832 8.96766 38.5364C9.67562 38.8833 10.5696 39.1724 11.6235 39.3956C12.4334 39.5671 12.9514 40.3605 12.7774 41.1699C12.6054 41.9773 11.8095 42.4976 10.9995 42.3202C9.70561 42.0451 8.57769 41.6763 7.64775 41.2237C4.63396 39.7485 4 37.5336 4 35.9388C4 28.8357 15.4272 28.8357 19.183 28.8357ZM35.1731 27.4252C36.331 27.505 37.4929 27.6725 38.6289 27.9236C41.1587 28.42 42.8246 29.4407 43.5485 30.9559C44.1505 32.2178 44.1505 33.6611 43.5485 34.9231C42.8346 36.4242 41.1707 37.4509 38.6049 37.9752C38.5029 37.9951 38.4029 38.0051 38.3009 38.0051C37.6049 38.0051 36.979 37.5187 36.835 36.811C36.669 36.0016 37.191 35.2121 38.0029 35.0467C39.5288 34.7357 40.5627 34.2233 40.8387 33.6412C41.0507 33.1946 41.0507 32.6843 40.8407 32.2417C40.5587 31.6556 39.5288 31.1472 38.0129 30.8502C36.989 30.6229 35.977 30.4774 34.9671 30.4096C34.1412 30.3518 33.5172 29.6401 33.5752 28.8168C33.6312 27.9894 34.3612 27.3834 35.1731 27.4252ZM19.1834 5C24.845 5 29.4507 9.59318 29.4507 15.237C29.4507 20.8808 24.845 25.4739 19.1834 25.4739C16.8635 25.4739 14.6777 24.7303 12.8658 23.3229C12.2118 22.8145 12.0939 21.8756 12.6038 21.2237C13.1138 20.5738 14.0537 20.4561 14.7077 20.9625C15.9896 21.9573 17.5375 22.4836 19.1834 22.4836C23.1911 22.4836 26.4509 19.2321 26.4509 15.237C26.4509 11.2419 23.1911 7.99035 19.1834 7.99035C15.1736 7.99035 11.9139 11.2419 11.9139 15.237C11.9139 16.0623 11.2419 16.7321 10.414 16.7321C9.58602 16.7321 8.91407 16.0623 8.91407 15.237C8.91407 9.59318 13.5198 5 19.1834 5ZM32.0385 7.13372C36.5022 7.13372 40.132 10.754 40.132 15.2017C40.132 19.6513 36.5022 23.2697 32.0385 23.2697C31.2106 23.2697 30.5386 22.5998 30.5386 21.7745C30.5386 20.9491 31.2106 20.2793 32.0385 20.2793C34.8483 20.2793 37.1322 18.0007 37.1322 15.2017C37.1322 12.4027 34.8483 10.1241 32.0385 10.1241C31.2106 10.1241 30.5386 9.45423 30.5386 8.62889C30.5386 7.80355 31.2106 7.13372 32.0385 7.13372Z" fill="black"/>
</svg>
