<svg width="48" height="48" viewBox="0 0 48 48" fill="none" xmlns="http://www.w3.org/2000/svg">
<path d="M29.2968 31.3202C30.1246 31.3202 30.7966 31.9758 30.7966 32.7833V34.5713C30.7966 39.2188 26.9204 43 22.154 43H12.6602C7.88597 43 4 39.2093 4 34.5504C4 33.7428 4.67201 33.0892 5.49985 33.0892C6.32768 33.0892 6.99969 33.7428 6.99969 34.5504C6.99969 37.5981 9.53969 40.0739 12.6602 40.0739H22.154C25.2667 40.0739 27.7969 37.6057 27.7969 34.5713V32.7833C27.7969 31.9758 28.4689 31.3202 29.2968 31.3202ZM42.4997 22.5354C43.1074 22.5354 43.6548 22.8926 43.8866 23.4418C44.1184 23.989 43.9879 24.6198 43.5593 25.0378L37.8677 30.5651C37.5736 30.8483 37.1918 30.9927 36.8081 30.9927C36.4244 30.9927 36.0387 30.8483 35.7465 30.5613C35.1621 29.9875 35.1621 29.0622 35.7504 28.4922L38.8689 25.4634H19.0982C18.2704 25.4634 17.5964 24.8079 17.5964 24.0004C17.5964 23.1928 18.2704 22.5354 19.0982 22.5354H42.4997ZM22.1349 5C26.911 5 30.797 8.79065 30.797 13.4496V15.2186C30.797 16.0242 30.125 16.6798 29.2972 16.6798C28.4693 16.6798 27.7973 16.0242 27.7973 15.2186V13.4496C27.7973 10.4019 25.2573 7.92612 22.1349 7.92612H12.643C9.53034 7.92612 7.00008 10.3962 7.00008 13.4287V27.8978C7.00008 28.7053 6.32807 29.3609 5.50024 29.3609C4.6724 29.3609 4.00039 28.7053 4.00039 27.8978V13.4287C4.00039 8.78115 7.87662 5 12.643 5H22.1349ZM35.7426 17.4453C36.327 16.8677 37.2736 16.8639 37.8638 17.4339L39.2974 18.8172C39.8876 19.3872 39.8915 20.3125 39.3091 20.8863C39.015 21.1752 38.6293 21.3215 38.2436 21.3215C37.8619 21.3215 37.4801 21.179 37.1879 20.8977L35.7523 19.5126C35.1641 18.9445 35.1602 18.0172 35.7426 17.4453Z" fill="black"/>
</svg>
