<svg width="48" height="48" viewBox="0 0 48 48" fill="none" xmlns="http://www.w3.org/2000/svg">
<path d="M31.511 4C39.1803 4 44 8.78452 44 16.5066V21.6429C44 22.0472 43.8382 22.4347 43.5507 22.7189C43.2632 23.0031 42.8739 23.1604 42.4697 23.1557V23.1205C41.6245 23.1205 40.9393 22.4353 40.9393 21.5901V16.5066C40.9393 10.4028 37.5972 7.06069 31.511 7.06069H16.5066C10.4204 7.06069 7.06069 10.4204 7.06069 16.5066V31.511C7.06069 37.5796 10.4204 40.9393 16.5066 40.9393H31.511C37.5972 40.9393 40.9393 37.5796 40.9393 31.511C40.9393 30.6658 41.6245 29.9807 42.4697 29.9807C43.3148 29.9807 44 30.6658 44 31.511C44 39.2155 39.2155 44 31.511 44H16.5066C8.78452 44 4 39.2155 4 31.511V16.5066C4 8.78452 8.78452 4 16.5066 4H31.511ZM24.1407 27.2894C24.5483 27.2984 24.9349 27.4715 25.2131 27.7696C25.4913 28.0676 25.6374 28.4653 25.6183 28.8725V30.8074L25.591 31.0476C25.5298 31.3626 25.3706 31.6526 25.133 31.8743C24.8361 32.1515 24.4411 32.2992 24.0352 32.285C23.1941 32.2469 22.5376 31.5436 22.5576 30.7018V28.7669C22.5714 28.361 22.7459 27.9771 23.0429 27.7C23.3398 27.4228 23.7348 27.2751 24.1407 27.2894ZM24.0704 15.6974C24.2407 15.6974 24.4079 15.7261 24.5658 15.7807C25.1955 15.9704 25.6535 16.5544 25.6535 17.2454L25.652 22.028L30.8602 22.0299C31.0356 22.0279 31.2081 22.0563 31.3708 22.1124C31.6079 22.1847 31.8276 22.3158 32.0065 22.4968C32.2907 22.7843 32.448 23.1736 32.4434 23.5778C32.4434 24.4095 31.7795 25.0891 30.9481 25.1082H17.3157C17.1725 25.1049 17.0342 25.0823 16.9033 25.0428C16.2343 24.8762 15.7406 24.2762 15.7325 23.5602C15.7279 23.156 15.8852 22.7667 16.1694 22.4792C16.4536 22.1917 16.8411 22.0299 17.2454 22.0299H22.5224V17.2278C22.5413 16.3837 23.2261 15.7067 24.0704 15.6974Z" fill="black"/>
</svg>
