<svg width="48" height="48" viewBox="0 0 48 48" fill="none" xmlns="http://www.w3.org/2000/svg">
<path fill-rule="evenodd" clip-rule="evenodd" d="M8.7398 34.5572C8.7398 37.8452 11.4158 40.5212 14.7058 40.5212H17.1778C18.0058 40.5212 18.6778 41.1932 18.6778 42.0212C18.6778 42.8492 18.0058 43.5212 17.1778 43.5212H14.7058C9.7618 43.5212 5.7398 39.4992 5.7398 34.5572L5.738 27.908L3.5 27.9098C2.672 27.9098 2 27.2378 2 26.4098C2 25.5818 2.672 24.9098 3.5 24.9098L7.21117 24.9075C7.22069 24.9073 7.23024 24.9072 7.2398 24.9072L7.268 24.908L41.7296 24.9075C41.7397 24.9073 41.7499 24.9072 41.76 24.9072L41.788 24.908L45.5 24.9098C46.328 24.9098 47 25.5818 47 26.4098C47 27.2378 46.328 27.9098 45.5 27.9098L43.26 27.908V34.5572C43.26 39.4992 39.238 43.5212 34.294 43.5212H31.884C31.056 43.5212 30.384 42.8492 30.384 42.0212C30.384 41.1932 31.056 40.5212 31.884 40.5212H34.294C37.584 40.5212 40.26 37.8452 40.26 34.5572V27.908H8.738L8.7398 34.5572ZM34.2938 6C39.2378 6 43.2598 10.022 43.2598 14.962V17.99C43.2598 18.818 42.5878 19.49 41.7598 19.49C40.9318 19.49 40.2598 18.818 40.2598 17.99V14.962C40.2598 11.676 37.5838 9 34.2938 9H31.8838C31.0558 9 30.3838 8.328 30.3838 7.5C30.3838 6.672 31.0558 6 31.8838 6H34.2938ZM17.1782 6C18.0062 6 18.6782 6.672 18.6782 7.5C18.6782 8.328 18.0062 9 17.1782 9H14.7062C11.4162 9 8.7402 11.676 8.7402 14.962V17.99C8.7402 18.818 8.0682 19.49 7.2402 19.49C6.4122 19.49 5.7402 18.818 5.7402 17.99V14.962C5.7402 10.022 9.7622 6 14.7062 6H17.1782Z" fill="black"/>
</svg>
