<svg width="48" height="48" viewBox="0 0 48 48" fill="none" xmlns="http://www.w3.org/2000/svg">
<path d="M30.8682 14.9601C31.4542 14.3704 32.4022 14.3704 32.9882 14.9601C33.5742 15.5499 33.5742 16.506 32.9882 17.0958L22.1798 27.9754L29.7681 40.5399C30.0441 40.9968 30.4781 40.9928 30.6581 40.9726C30.8342 40.9485 31.2602 40.8398 31.4122 40.3285L36.0563 24.6985C36.2963 23.8973 37.1304 23.4424 37.9244 23.684C38.7184 23.9235 39.1704 24.7649 38.9324 25.564L34.2883 41.192C33.8383 42.7037 32.5942 43.7665 31.0402 43.9658C30.8662 43.9899 30.6941 44 30.5221 44C29.1661 44 27.926 43.3035 27.204 42.1079L19.0037 28.529C18.6457 27.9332 18.7357 27.1683 19.2257 26.6771L30.8682 14.9601ZM39.0078 4.15459C40.3779 3.75604 41.8619 4.1405 42.868 5.16505C43.874 6.1876 44.246 7.67915 43.836 9.05998L41.3379 17.4638C41.0999 18.2629 40.2679 18.7158 39.4719 18.4783C38.6778 18.2387 38.2258 17.3973 38.4638 16.6002L40.9619 8.19444C41.1019 7.72343 40.8519 7.40539 40.7379 7.29066C40.6239 7.17391 40.3039 6.92029 39.8419 7.05515L7.65874 16.413C7.14673 16.562 7.03472 16.9907 7.01072 17.1679C6.98872 17.345 6.98072 17.7878 7.43674 18.0696L14.209 22.2363C14.915 22.6711 15.139 23.601 14.705 24.3136C14.423 24.7766 13.931 25.0342 13.4249 25.0342C13.1589 25.0342 12.8889 24.9638 12.6449 24.8128L5.87268 20.6441C4.53064 19.8188 3.82661 18.3333 4.03662 16.7653C4.24663 15.1952 5.31666 13.9493 6.82672 13.5105L39.0078 4.15459Z" fill="black"/>
</svg>
