<svg width="49" height="49" viewBox="0 0 49 49" fill="none" xmlns="http://www.w3.org/2000/svg">
<path d="M7.38999 14.5912C7.79853 14.512 8.22252 14.5952 8.56809 14.8222C9.25074 15.2755 9.44867 16.1723 9.01782 16.86L8.90479 17.0822C8.47764 18.0604 8.85918 19.2176 9.82734 19.7585C10.6107 20.2273 11.2555 20.8872 11.6982 21.6733C13.0769 24.1463 12.2213 27.2408 9.75539 28.7001C8.71275 29.2827 8.35046 30.5799 8.94587 31.5987L10.1871 33.6891C10.4696 34.1873 10.9479 34.5514 11.5115 34.6973C12.0751 34.8432 12.6753 34.7582 13.1734 34.4621C13.9764 34.0073 14.8895 33.7707 15.8178 33.777C18.7984 33.777 21.2146 36.1365 21.2146 39.0471C21.2245 40.2238 22.2042 41.1727 23.4093 41.1727L23.3913 41.2078C23.9504 41.2078 24.4671 41.4991 24.7467 41.972C25.0263 42.4448 25.0263 43.0274 24.7467 43.5003C24.4671 43.9732 23.9504 44.2645 23.3913 44.2645C20.4107 44.2645 17.9945 41.905 17.9945 38.9944C17.9993 38.6239 17.8998 38.2593 17.7067 37.9404C17.1031 36.92 15.7691 36.5668 14.7204 37.1498L14.4007 37.3068C11.9268 38.4237 8.95687 37.5603 7.52471 35.2526L6.30144 33.1621C4.9228 30.6891 5.77839 27.5947 8.24428 26.1353C8.57111 25.9476 8.84353 25.6816 9.03581 25.3624C9.3966 24.8713 9.52625 24.2535 9.39236 23.6634C9.25846 23.0734 8.87367 22.5669 8.33423 22.2706L8.03443 22.0798C5.80092 20.5545 5.07019 17.6138 6.39138 15.2438L6.5446 15.0535C6.76778 14.8175 7.06316 14.6545 7.38999 14.5912ZM39.647 19.6683C40.3561 19.4198 41.1632 19.6893 41.5605 20.3382C42.0003 21.0614 41.7591 21.9956 41.0208 22.4287C40.694 22.6165 40.4216 22.8825 40.2293 23.2017C39.9361 23.6904 39.8549 24.2731 40.0035 24.8206C40.1521 25.3681 40.5183 25.835 41.0208 26.1178C43.5664 27.6078 44.4022 30.8255 42.8917 33.3202L41.6684 35.4107L41.4731 35.7035C39.911 37.8845 36.8996 38.5981 34.4727 37.3079C33.7998 36.9112 32.9591 36.903 32.2782 37.2866C31.5973 37.6702 31.1838 38.385 31.1987 39.1525C31.1125 39.9381 30.4337 40.5338 29.6246 40.5338C28.8155 40.5338 28.1367 39.9381 28.0505 39.1525C28.0892 37.3106 29.1099 35.6222 30.7426 34.6993C32.3753 33.7765 34.383 33.7531 36.0378 34.6378C36.535 34.9297 37.1322 35.0122 37.6928 34.8661C38.2524 34.7129 38.7294 34.354 39.024 33.8648L40.2473 31.7743C40.5396 31.2883 40.6204 30.7082 40.4717 30.1636C40.323 29.6189 39.9571 29.1551 39.4558 28.8758C38.6128 28.3742 37.9328 27.6493 37.4949 26.7853C36.1163 24.3123 36.9719 21.2179 39.4378 19.7585L39.647 19.6683ZM24.6326 17.668C26.4248 17.6634 28.1453 18.3554 29.4143 19.5913C30.6833 20.8272 31.3966 22.5055 31.3966 24.2557L31.3854 24.6546C31.2373 27.1667 29.6341 29.3941 27.2335 30.3706C24.7066 31.3985 21.7943 30.8377 19.8561 28.95C17.9179 27.0624 17.3359 24.22 18.3817 21.7496C19.4276 19.2793 21.8951 17.668 24.6326 17.668ZM24.6326 20.7599C22.6455 20.7599 21.0347 22.3329 21.0347 24.2732C21.0347 26.2136 22.6455 27.7866 24.6326 27.7866C26.6196 27.7866 28.2304 26.2136 28.2304 24.2732L28.2185 23.9851C28.0684 22.1795 26.5202 20.7599 24.6326 20.7599ZM25.8738 4.26447C28.8544 4.26447 31.2706 6.62397 31.2706 9.53456C31.2658 9.90502 31.3653 10.2697 31.5584 10.5886C31.845 11.0823 32.3218 11.4437 32.8827 11.5921C33.4436 11.7406 34.042 11.6639 34.5447 11.3791C37.0771 10.0328 40.246 10.8683 41.7404 13.2763C42.1534 14.0112 41.8995 14.9333 41.1647 15.3668C40.4181 15.783 39.4678 15.5413 39.024 14.8222L38.8827 14.6153C38.2254 13.7637 37.0072 13.5052 36.0378 14.0493C34.3858 14.9326 32.3817 14.911 30.7501 13.9924C29.1185 13.0737 28.0953 11.3908 28.0505 9.55212C28.07 8.97631 27.8493 8.41742 27.439 8.00346C27.0286 7.5895 26.4638 7.35594 25.8738 7.35625H23.4093C22.8177 7.35608 22.2512 7.5891 21.838 8.00249C21.4248 8.41588 21.2 8.97464 21.2146 9.55212C21.1979 11.4008 20.1739 13.1008 18.5274 14.0134C16.8809 14.926 14.8613 14.9129 13.2273 13.979L13.1554 13.9087L12.9823 13.7872C12.3873 13.3067 12.2327 12.4588 12.6517 11.8007C13.1087 11.0828 14.0752 10.8625 14.8104 11.3088C15.1386 11.4958 15.5099 11.5986 15.8897 11.6075C16.4719 11.6312 17.0399 11.4279 17.4685 11.0424C17.8971 10.6568 18.151 10.1207 18.1744 9.55212C18.1633 6.69536 20.4851 4.35015 23.4093 4.26447H25.8738Z" fill="black"/>
</svg>
