<svg width="48" height="48" viewBox="0 0 48 48" fill="none" xmlns="http://www.w3.org/2000/svg">
<path d="M22.7692 4.20099C23.5637 3.933 24.4384 3.933 25.2308 4.20099L38.5159 8.73488C40.0018 9.24287 41 10.6108 41 12.1428V25.4245C41 29.4504 39.5038 33.3483 36.7891 36.3902C35.546 37.7842 33.951 38.9821 31.9134 40.0541L24.7327 43.824C24.5084 43.94 24.2614 44 24.0123 44C23.7654 44 23.5184 43.94 23.2941 43.824L16.0989 40.0521C14.0573 38.9781 12.4602 37.7802 11.2191 36.3922C8.50036 33.3463 7 29.4464 7 25.4165C7 24.6045 7.67918 23.9445 8.51477 23.9445C9.35036 23.9445 10.0295 24.6045 10.0295 25.4165C10.0295 28.7404 11.2644 31.9523 13.5057 34.4642C14.5039 35.5822 15.8231 36.5622 17.5375 37.4622L24.0123 40.8561L30.4728 37.4642C32.183 36.5662 33.5023 35.5862 34.5025 34.4642C36.7397 31.9543 37.9725 28.7464 37.9725 25.4245V12.1428C37.9725 11.8588 37.7873 11.6068 37.5136 11.5128L24.2285 6.97893C24.0823 6.92893 23.9197 6.92893 23.7715 6.97893L10.4885 11.5128C10.2148 11.6068 10.0295 11.8588 10.0295 12.1428V15.9427C10.0295 16.7567 9.35036 17.4167 8.51477 17.4167C7.67918 17.4167 7 16.7567 7 15.9427V12.1428C7 10.6108 8.00024 9.24287 9.4862 8.73488L22.7692 4.20099ZM29.3684 18.4792C29.9591 17.9053 30.9181 17.9053 31.5088 18.4792C32.0995 19.0532 32.0995 19.9852 31.5088 20.5592L23.6427 28.203C23.3587 28.479 22.9738 28.635 22.5725 28.635C22.1691 28.635 21.7863 28.479 21.5023 28.203L17.6824 24.4911C17.0917 23.9151 17.0917 22.9871 17.6824 22.4111C18.2752 21.8352 19.2322 21.8352 19.8229 22.4111L22.5725 25.0811L29.3684 18.4792Z" fill="black"/>
</svg>
