<svg width="48" height="48" viewBox="0 0 48 48" fill="none" xmlns="http://www.w3.org/2000/svg">
<path d="M31.4935 3.99957C39.2155 3.99957 43.9995 8.78557 43.9995 16.5116V31.5116C43.9995 39.2156 39.2155 43.9996 31.4935 43.9996H16.4875C8.78352 43.9996 3.99952 39.2156 4.00152 31.5056C4.00152 30.6616 4.68752 29.9756 5.53152 29.9756C6.37752 29.9756 7.06152 30.6616 7.06152 31.5056C7.06152 37.5736 10.4035 40.9336 16.5075 40.9336H31.4935C37.5795 40.9336 40.9395 37.5916 40.9395 31.5056V16.5056C40.9395 10.4196 37.5995 7.05957 31.4935 7.05957H16.5055C10.4195 7.05957 7.05952 10.4196 7.05952 16.5056V21.1676C7.05952 22.0036 6.38352 22.6796 5.54752 22.6796H5.52552C4.68152 22.6796 3.99752 21.9936 3.99952 21.1496V16.5056C3.99952 8.78557 8.81952 3.99957 16.5075 3.99957H31.4935ZM15.0409 21.6076C16.3629 21.6076 17.4369 22.6816 17.4369 23.9996C17.4369 25.3196 16.3629 26.3936 15.0409 26.3936C13.7209 26.3936 12.6449 25.3196 12.6449 23.9996C12.6449 22.6816 13.7209 21.6076 15.0409 21.6076ZM23.9999 21.6076C25.3219 21.6076 26.3959 22.6816 26.3959 23.9996C26.3959 25.3196 25.3219 26.3936 23.9999 26.3936C22.6799 26.3936 21.6039 25.3196 21.6039 23.9996C21.6039 22.6816 22.6799 21.6076 23.9999 21.6076ZM32.9579 21.6076C34.2799 21.6076 35.3539 22.6816 35.3539 23.9996C35.3539 25.3196 34.2799 26.3936 32.9579 26.3936C31.6379 26.3936 30.5619 25.3196 30.5619 23.9996C30.5619 22.6816 31.6379 21.6076 32.9579 21.6076Z" fill="black"/>
</svg>
