<svg width="48" height="48" viewBox="0 0 48 48" fill="none" xmlns="http://www.w3.org/2000/svg">
<path d="M14.0193 8C14.8203 8 15.4703 8.63117 15.4703 9.40886C15.4703 10.1866 14.8203 10.8177 14.0193 10.8177H11.5682C8.99516 10.8177 6.90192 12.8502 6.90192 15.3486V18.8576C9.22732 19.4775 10.9394 21.5458 10.9394 23.9991C10.9394 26.4261 9.2544 28.4135 6.90385 28.9996L6.90578 32.6514C6.90578 35.1498 8.99903 37.1823 11.5721 37.1823H26.0546V34.7872C26.0546 34.0095 26.7046 33.3783 27.5055 33.3783C28.3064 33.3783 28.9565 34.0095 28.9565 34.7872V37.1823H36.4279C39.0029 37.1823 41.0961 35.1498 41.0961 32.6514L41.0981 29.1386C38.7727 28.5187 37.0606 26.4505 37.0606 23.9991C37.0606 21.5458 38.7727 19.4775 41.0981 18.8576V15.3486C41.0981 12.8502 39.0048 10.8177 36.4318 10.8177H28.9565V13.9567C28.9565 14.7344 28.3064 15.3655 27.5055 15.3655C26.7046 15.3655 26.0546 14.7344 26.0546 13.9567V10.8177H22.1273C21.3264 10.8177 20.6763 10.1866 20.6763 9.40886C20.6763 8.63117 21.3264 8 22.1273 8H36.4318C40.6048 8 44 11.2967 44 15.3486V20.0768C44 20.8545 43.35 21.4856 42.549 21.4856C41.1232 21.4856 39.9625 22.6146 39.9625 23.9991C39.9625 25.3835 41.1232 26.5106 42.549 26.5106C42.934 26.5106 43.3035 26.659 43.5744 26.9239C43.8472 27.1869 44 27.5475 44 27.9195L43.9981 32.6514C43.9981 36.7051 40.6028 40 36.4279 40H11.5721C7.39911 40 4.00387 36.7051 4.00387 32.6514L4 27.7673C4 27.3954 4.15283 27.0347 4.42561 26.7698C4.69839 26.5068 5.06597 26.3584 5.45096 26.3584C6.92513 26.3584 8.03753 25.3441 8.03753 23.9991C8.03753 22.6146 6.8787 21.4856 5.45096 21.4856C4.65003 21.4856 4 20.8545 4 20.0768V15.3486C4 11.2967 7.39524 8 11.5682 8H14.0193ZM27.5057 19.4127C28.3066 19.4127 28.9567 20.0439 28.9567 20.8216V28.3355C28.9567 29.1132 28.3066 29.7444 27.5057 29.7444C26.7048 29.7444 26.0547 29.1132 26.0547 28.3355V20.8216C26.0547 20.0439 26.7048 19.4127 27.5057 19.4127Z" fill="black"/>
</svg>
