<svg width="48" height="48" viewBox="0 0 48 48" fill="none" xmlns="http://www.w3.org/2000/svg">
<path d="M31.494 3.99951C39.216 3.99951 44 8.78551 44 16.5115V31.5115C44 39.2155 39.216 43.9995 31.494 43.9995H16.488C8.78401 43.9995 4 39.2155 4.00201 31.5055C4.00201 30.6615 4.68601 29.9755 5.53201 29.9755C6.37801 29.9755 7.06201 30.6615 7.06201 31.5055C7.06201 37.5735 10.404 40.9335 16.508 40.9335H31.494C37.58 40.9335 40.94 37.5915 40.94 31.5055V16.5055C40.94 10.4195 37.6 7.05951 31.494 7.05951H16.506C10.42 7.05951 7.06001 10.4195 7.06001 16.5055V21.1675C7.06001 22.0035 6.38401 22.6795 5.54801 22.6795H5.52601C4.68201 22.6795 3.99801 21.9935 4 21.1495V16.5055C4 8.78551 8.82001 3.99951 16.508 3.99951H31.494ZM24.0004 13.7671C24.8284 13.7671 25.5004 14.4391 25.5004 15.2671V23.1371L31.5524 26.7451C32.2624 27.1711 32.4964 28.0911 32.0724 28.8031C31.7924 29.2731 31.2924 29.5351 30.7824 29.5351C30.5204 29.5351 30.2564 29.4671 30.0144 29.3231L23.2324 25.2771C22.7784 25.0051 22.5004 24.5151 22.5004 23.9871V15.2671C22.5004 14.4391 23.1724 13.7671 24.0004 13.7671Z" fill="black"/>
</svg>
