<svg width="1430" height="1671" viewBox="0 0 1430 1671" fill="none" xmlns="http://www.w3.org/2000/svg">
<path d="M1429.35 675.893C1415.69 677.219 1401.99 677.915 1388.27 677.976C1314.22 677.987 1241.33 659.556 1176.19 624.348C1111.04 589.14 1055.68 538.263 1015.12 476.31V1163.04C1015.12 1263.42 985.351 1361.55 929.58 1445.02C873.809 1528.49 794.539 1593.54 701.794 1631.96C609.05 1670.38 506.997 1680.43 408.54 1660.84C310.083 1641.26 219.644 1592.92 148.661 1521.93C77.6775 1450.95 29.3372 1360.51 9.75286 1262.06C-9.83144 1163.6 0.219875 1061.55 38.6359 968.801C77.0518 876.057 142.107 796.787 225.575 741.015C309.042 685.244 407.174 655.476 507.56 655.476C518.155 655.476 528.512 656.429 538.929 657.083V907.202C528.512 905.952 518.274 904.048 507.56 904.048C438.856 904.048 372.966 931.34 324.385 979.921C275.805 1028.5 248.512 1094.39 248.512 1163.1C248.512 1231.8 275.805 1297.69 324.385 1346.27C372.966 1394.85 438.856 1422.14 507.56 1422.14C650.655 1422.14 777.024 1309.4 777.024 1166.31L779.524 0H1018.81C1029.74 103.97 1076.87 200.788 1151.96 273.526C1227.05 346.265 1325.32 390.295 1429.58 397.917V675.893" fill="black"/>
</svg>
